Coordinates
datacolumns 11
datarows 47
range 0 0.46
inDegrees=yes
Units are S.I. units (second, meters, Newtons, ...)
If the header above contains a line with 'inDegrees', this indicates whether rotational values are in degrees (yes) or radians (no).
endheader
time	pelvis_tilt	pelvis_tx	pelvis_ty	hip_flexion_l	hip_flexion_r	knee_angle_l	knee_angle_r	ankle_angle_l	ankle_angle_r	lumbar
0	13.61642649	-0.10560278	0.73335341	61.48755391	61.48755391	-71.88214031	-71.88214031	-3.63621623	-3.63621623	-37.38772912
0.01	13.49984857	-0.10555169	0.73352888	61.56501772	61.56501772	-71.93745213	-71.93745213	-3.63381465	-3.63381465	-37.6251145
0.02	13.3821028	-0.10528904	0.73340165	61.73744507	61.73744507	-72.18850542	-72.18850542	-3.63560919	-3.63560919	-37.81845541
0.03	13.24593673	-0.10519758	0.73357035	61.81898525	61.81898525	-72.22615949	-72.22615949	-3.63606962	-3.63606962	-38.05997395
0.04	12.9670643	-0.10479733	0.73309786	62.15607005	62.15607005	-72.46214781	-72.46214781	-3.71177148	-3.71177148	-38.08230616
0.05	12.82391387	-0.10461863	0.73326793	62.22633874	62.22633874	-72.49877171	-72.49877171	-3.71416645	-3.71416645	-38.33457494
0.06	12.70156476	-0.10424778	0.73324877	62.33614059	62.33614059	-72.68013018	-72.68013018	-3.75266267	-3.75266267	-38.58504303
0.07	12.54183646	-0.10397769	0.73337412	62.40586113	62.40586113	-72.70888843	-72.70888843	-3.75611133	-3.75611133	-38.83565029
0.08	12.38652369	-0.1035577	0.73334046	62.51599459	62.51599459	-72.84061768	-72.84061768	-3.78649221	-3.78649221	-39.07470467
0.09	12.20868875	-0.10320174	0.73341969	62.59359	62.59359	-72.86416024	-72.86416024	-3.79052431	-3.79052431	-39.32518144
0.1	11.87450297	-0.10268563	0.7330363	62.87803219	62.87803219	-72.94995101	-72.94995101	-3.84608289	-3.84608289	-39.38477655
0.11	11.69170005	-0.10225997	0.73309856	62.94794067	62.94794067	-72.94923018	-72.94923018	-3.84049062	-3.84049062	-39.64841156
0.12	11.49993442	-0.10178297	0.73313992	63.02452522	63.02452522	-72.94076135	-72.94076135	-3.83057995	-3.83057995	-39.91569106
0.13	11.29803294	-0.10125522	0.73316352	63.11038313	63.11038313	-72.91560525	-72.91560525	-3.81339254	-3.81339254	-40.18242349
0.14	11.06376958	-0.10070032	0.7331861	63.21622895	63.21622895	-72.84700701	-72.84700701	-3.77267173	-3.77267173	-40.42486903
0.15	10.53285265	-0.09992193	0.7325381	63.65777566	63.65777566	-72.78132546	-72.78132546	-3.32715229	-3.32715229	-40.30043494
0.16	10.28711739	-0.09925614	0.73263805	63.75664162	63.75664162	-72.65063762	-72.65063762	-3.25632255	-3.25632255	-40.55483918
0.17	10.07505773	-0.0984818	0.73275273	63.85288333	63.85288333	-72.57429395	-72.57429395	-3.22711587	-3.22711587	-40.8474455
0.18	9.81786744	-0.09767621	0.73290988	63.95866031	63.95866031	-72.41935388	-72.41935388	-3.16974918	-3.16974918	-41.10338082
0.19	9.38022875	-0.09680334	0.73264328	64.28854441	64.28854441	-72.2838217	-72.2838217	-2.80603841	-2.80603841	-41.16278863
0.2	9.12497887	-0.09591638	0.73283572	64.40702314	64.40702314	-72.1443629	-72.1443629	-2.77249387	-2.77249387	-41.45146628
0.21	8.71999175	-0.09494123	0.7326398	64.72215478	64.72215478	-72.04912278	-72.04912278	-2.64514497	-2.64514497	-41.56887368
0.22	8.4298065	-0.09396534	0.73281092	64.88449518	64.88449518	-71.92994184	-71.92994184	-2.60671414	-2.60671414	-41.84738721
0.23	7.98332597	-0.0928766	0.73251699	65.26139511	65.26139511	-71.87923921	-71.87923921	-2.49542185	-2.49542185	-41.93030869
0.24	7.7501912	-0.09177874	0.73279923	65.38437205	65.38437205	-71.84234964	-71.84234964	-2.48281191	-2.48281191	-42.29980332
0.25	7.19265147	-0.09058457	0.73239541	65.86012308	65.86012308	-71.77881994	-71.77881994	-2.31935894	-2.31935894	-42.28896486
0.26	6.9459858	-0.08940873	0.73271139	65.98804911	65.98804911	-71.74899074	-71.74899074	-2.30486092	-2.30486092	-42.67275252
0.27	6.34176715	-0.08810716	0.73222402	66.51502354	66.51502354	-71.71541442	-71.71541442	-2.0743459	-2.0743459	-42.6310857
0.28	6.07277111	-0.08683962	0.73257515	66.64740814	66.64740814	-71.67956425	-71.67956425	-2.05517196	-2.05517196	-43.02317342
0.29	5.42493983	-0.08547669	0.73204783	67.20407196	67.20407196	-71.63067838	-71.63067838	-1.76471521	-1.76471521	-42.96109187
0.3	4.93384196	-0.08411496	0.73191838	67.57269368	67.57269368	-71.57680735	-71.57680735	-1.56108868	-1.56108868	-43.10881059
0.31	4.43187035	-0.08271605	0.73181066	67.93757971	67.93757971	-71.50597063	-71.50597063	-1.38214716	-1.38214716	-43.26325152
0.32	3.91350117	-0.08129255	0.73169945	68.30902089	68.30902089	-71.41982412	-71.41982412	-1.21563084	-1.21563084	-43.4158391
0.33	3.36162672	-0.07984772	0.73153357	68.7121877	68.7121877	-71.32494708	-71.32494708	-1.0399222	-1.0399222	-43.54092055
0.34	2.78857305	-0.07835867	0.73134495	69.13372666	69.13372666	-71.22625942	-71.22625942	-0.86979555	-0.86979555	-43.65458041
0.35	2.46457237	-0.07677891	0.73172606	69.28301878	69.28301878	-71.16534365	-71.16534365	-0.84740018	-0.84740018	-44.08571053
0.36	1.60787797	-0.07517898	0.73097003	70.00932766	70.00932766	-71.0445068	-71.0445068	-0.56447675	-0.56447675	-43.87276662
0.37	1.00297831	-0.0734974	0.73080426	70.46434567	70.46434567	-70.96413459	-70.96413459	-0.41711054	-0.41711054	-43.98303138
0.38	0.46042421	-0.07177742	0.73090999	70.82964863	70.82964863	-70.85623696	-70.85623696	-0.31674648	-0.31674648	-44.20016264
0.39	-0.24510501	-0.06988206	0.73049587	71.42508282	71.42508282	-70.85269013	-70.85269013	-0.14936021	-0.14936021	-44.19054178
0.4	-0.86617227	-0.06799446	0.73036075	71.91067226	71.91067226	-70.81535232	-70.81535232	-0.02344647	-0.02344647	-44.31290618
0.41	-1.51002773	-0.06601788	0.73021668	72.41855918	72.41855918	-70.78743211	-70.78743211	0.10479586	0.10479586	-44.42361024
0.42	-2.17251721	-0.06400512	0.73005059	72.94536937	72.94536937	-70.75458507	-70.75458507	0.24105672	0.24105672	-44.52237343
0.43	-2.84994496	-0.06190786	0.72989029	73.48078172	73.48078172	-70.72632056	-70.72632056	0.38765831	0.38765831	-44.62083862
0.44	-3.55131305	-0.0597559	0.72969728	74.03321119	74.03321119	-70.69220078	-70.69220078	0.55396144	0.55396144	-44.70159538
0.45	-4.28511785	-0.05752252	0.72951075	74.60329377	74.60329377	-70.6482718	-70.6482718	0.73671364	0.73671364	-44.76218015
0.46	-5.03649257	-0.05525372	0.72933889	75.18109555	75.18109555	-70.58801074	-70.58801074	0.9322297	0.9322297	-44.82094702
